<svg width="693" height="317" viewBox="0 0 693 317" fill="none" xmlns="http://www.w3.org/2000/svg">
<path d="M108.772 31.3484C111.186 38.6227 119.523 42.9868 122.817 34.1151C121.871 27.7258 104.117 28.2628 99.9786 21.9425C86.3522 1.13132 120.926 -7.19449 134.013 7.87705L135.489 14.2495C131.369 14.6357 126.952 14.8464 122.798 15.1143C120.031 11.1202 116.413 7.10635 111.049 10.285C110.084 12.0635 110.223 11.2558 110.603 13.3398C113.31 17.33 121.268 16.5179 126.201 18.7364C133.368 21.9599 134.153 23.3869 137.171 29.8658C136.437 22.4139 137.068 9.19649 137.034 0.991754C141.025 1.25015 146.07 1.13636 150.148 1.14813C150.195 6.6372 150.131 12.1268 149.959 17.6131C155.177 13.8594 162.929 10.3399 168.518 15.8043C173.309 20.4891 172.574 28.7039 172.515 34.8942C179.29 24.5107 196.423 29.7011 196.111 22.897C193.459 19.3182 187.435 22.6554 184.883 24.6195C180.677 24.2933 177.499 23.9962 173.345 23.3028L175.219 18.219C177.856 16.1462 179.504 14.6228 182.973 13.8874C188.691 12.6739 198.588 12.3454 203.632 15.3492C211.688 20.1472 208.426 32.6505 209.118 40.6747C209.465 44.7009 209.601 45.6985 210.545 49.6529C211.521 44.4845 211.017 20.4706 210.98 13.8728C213.168 13.8482 221.779 13.4737 223.095 14.2915L223.089 16.7908C224.561 16.6221 227.412 14.9086 228.917 14.2215C238.589 9.80184 243.775 15.852 247.332 24.2394C255.401 9.05355 277.577 8.73182 283.682 24.7159C290.492 12.6083 304.327 8.74192 316.037 17.9472C318.689 20.0323 319.901 23.5977 321.018 26.7309L321.648 26.8727C321.915 29.4617 322.323 32.2037 321.73 34.7434L320.908 34.8241C318.705 45.9693 306.76 50.4035 296.724 47.648C289.712 45.7232 287.072 42.4902 283.621 36.6553C278.551 49.1306 264.495 51.7549 253.361 44.7855C250.351 42.901 248.945 40.0929 247.319 37.0303C240.792 55.281 227.566 45.096 224.441 46.1027C224.458 50.9175 224.489 55.1454 224.106 59.9377L211.062 59.8497C211.073 55.7552 210.985 51.5772 210.942 47.4754C207.638 47.6788 202.02 48.0908 198.825 47.4838C198.036 47.3336 197.361 44.4525 196.536 44.776C188.432 47.9518 187.186 49.8256 177.693 47.1934C175.247 46.5152 174.034 43.5182 172.86 41.0996C172.119 42.4958 172.524 45.6868 172.584 47.5398C168.179 47.6413 163.664 47.6329 159.248 47.6766C159.03 42.7194 159.963 26.435 157.96 24.7086C147.808 15.9607 150.139 45.8499 150.134 47.6396L136.995 47.653C136.781 44.1224 137.138 38.2752 137.262 34.5741C134.562 40.4589 131.05 46.1526 124.268 47.4737C108.549 50.5357 98.9718 47.2865 94.5368 32.0227C99.5447 31.5732 103.735 31.4381 108.772 31.3484ZM267.77 38.8704C273.472 33.4677 273.653 22.1403 263.487 22.4307C256.809 27.274 257.138 38.9113 267.77 38.8704ZM304.106 39.2387C310.516 34.7574 310.268 22.1538 299.97 22.3107C294.479 27.7051 294.211 38.7841 304.106 39.2387ZM232.38 38.1664C236.826 32.5793 237.045 22.4811 227.49 22.8348C221.965 28.6428 222.142 38.2836 232.38 38.1664ZM187.732 40.7745C192.783 40.4701 196.753 38.0964 196.395 32.4504C195.474 31.8747 195.952 31.9364 195.004 31.9778C191.712 32.9335 187.398 33.6594 185.741 36.6642C185.778 38.95 185.892 39.1922 187.732 40.7745Z" fill="white"/>
<path d="M321.018 26.7309L321.648 26.8727C321.915 29.4617 322.323 32.2037 321.73 34.7434L320.908 34.8241L321.018 26.7309Z" fill="white"/>
<path d="M244.503 117.843C269.012 114.2 291.821 131.149 295.401 155.665C298.982 180.181 281.972 202.944 257.445 206.461C233.008 209.964 210.345 193.031 206.778 168.605C203.211 144.18 220.085 121.474 244.503 117.843ZM256.163 190.975C290.076 183.617 284.608 130.133 247.571 132.977C214.012 139.02 214.196 194.465 256.163 190.975Z" fill="white"/>
<path d="M493.66 117.882C518.071 114.276 540.79 131.116 544.44 155.52C548.089 179.923 531.289 202.673 506.889 206.365C482.432 210.065 459.612 193.214 455.952 168.75C452.297 144.286 469.186 121.497 493.66 117.882ZM504.635 191.135C507.539 190.419 511.025 189.655 513.509 188.104C538.083 172.788 528.94 130.663 497.096 132.95C489.876 134.367 481.283 138.271 477.802 144.863C464.926 169.252 476.882 192.563 504.635 191.135Z" fill="white"/>
<path d="M351.505 117.797C372.705 116.045 379.56 126.038 385.11 144.16C386.214 128.947 395.536 117.216 411.22 117.57C442.364 118.272 439.785 149.794 439.746 170.326L439.617 204.532L422.812 204.567C422.436 186.713 423.143 169.209 422.431 151.031C421.781 134.625 402.19 127.956 391.203 138.513C382.739 146.64 384.611 167.903 384.572 179.846C384.689 188.041 384.656 196.236 384.465 204.429L367.626 204.61C367.475 192.364 367.834 180.064 367.71 167.807C367.195 162.233 368.686 151.364 366.886 146.307C360.289 127.773 333.64 129.677 330.401 150.15C329.02 158.873 329.424 165.303 329.453 173.455L329.588 204.465C324.314 204.587 318.716 204.483 313.416 204.474C312.379 178.337 313.221 146.551 313.241 119.968L329.484 119.829C329.677 126.895 329.394 134.071 329.204 141.144C334.055 127.141 336.499 121.85 351.505 117.797Z" fill="white"/>
<path d="M652.132 117.896C653.399 117.734 654.677 117.639 655.96 117.614C665.226 117.472 676.039 120.21 682.811 126.825C686.796 130.689 689.672 135.548 691.152 140.898C693.31 148.925 692.721 162.336 692.704 170.937L692.715 204.402C687.575 204.629 681.751 204.471 676.555 204.446C675.748 196.615 676.146 192.244 676.701 184.41C672.721 198.887 663.567 207.317 647.855 206.632C639.497 206.253 631.633 202.571 625.994 196.394C618.908 186.774 617.535 172.841 625.652 163.565C636.807 150.81 660.904 151.61 676.532 150.289C674.38 135.729 664.554 129.355 649.537 133.775C643.393 135.585 640.557 141.007 638.163 146.556C633.286 144.988 628.74 143.532 623.763 142.24C627.328 126.808 637.479 120.389 652.132 117.896ZM643.505 190.692C660.26 195.578 675.753 189.002 676.398 169.563C676.437 168.42 676.745 166.499 676.897 165.305L676.286 164.27C674.088 164.052 672.698 164.295 670.523 164.557C656.498 166.268 639.901 163.754 636.324 180.021C637.294 183.876 639.374 189.204 643.505 190.692Z" fill="white"/>
<path d="M86.8926 89.5562C92.1612 89.5562 99.7359 89.3421 104.805 89.8499C105.318 91.3145 104.636 92.8172 104.18 94.4096C103.567 97.4213 101.105 104.722 100.102 107.887L90.7458 136.867C83.8522 158.511 76.8857 183.557 69.1356 204.509C58.3361 204.555 47.5366 204.519 36.7377 204.402C32.5168 194.57 27.2319 175.947 23.7296 164.964C15.6791 139.908 7.76918 114.807 0 89.6627C6.00962 89.5069 12.6476 89.6195 18.7043 89.6111C23.6388 106.978 29.7286 125.039 34.9103 142.453L45.1857 175.88C47.6078 183.846 50.0899 192.954 52.9033 200.684C61.1792 174.932 68.6233 148.446 76.8347 122.643C80.244 111.931 83.1442 100.022 86.8926 89.5562Z" fill="white"/>
<path d="M182.21 119.983C187.86 119.728 194.502 119.867 200.226 119.846C197.44 130.832 191.146 146.382 187.301 157.636C177.614 184.015 167.441 212.186 158.427 238.771L140.712 238.759C144.987 227.213 148.896 216.082 153.341 204.477C148.514 204.558 144.182 204.471 139.354 204.3C135.832 197.066 132.475 184.855 129.708 177.102C123.03 158.392 117.459 138.775 111.062 120.027C116.792 119.79 123.021 119.896 128.791 119.886C133.138 131.541 137.412 147.376 141.3 159.476C145.647 173.007 150.953 187.978 154.705 201.482C155.716 197.488 157.17 192.879 158.617 189.019C167.081 166.441 173.549 142.408 182.21 119.983Z" fill="white"/>
<path d="M481.417 0.264771L493.463 0.0859681C493.049 8.10462 492.976 20.0911 493.329 28.0823C493.777 26.4692 494.287 24.8745 494.859 23.3023C496.429 19.0648 499.641 15.6401 503.772 13.8039C512.376 9.91731 525.768 12.1571 530.146 21.3018C530.774 22.6168 531.368 23.9693 531.939 25.31C531.766 21.322 531.861 16.9646 531.883 12.9435C534.271 12.8914 541.743 12.4345 543.363 13.4664C543.537 14.6827 543.621 15.4742 543.66 16.7011C548.571 16.7645 556.615 4.1844 566.335 18.6949C567.108 26.9237 566.8 37.9781 566.749 46.476L554.025 46.7019L553.93 38.9517C553.946 33.8045 555.252 25.254 550.555 22.4312C549.311 22.4178 548.201 22.2065 547.237 23.2367C543.705 27.0055 544.776 41.5351 544.815 46.5713L531.749 46.541C531.592 42.2783 531.827 37.871 531.979 33.5943C531.468 34.8146 530.902 36.0129 530.291 37.1878C527.836 41.8024 523.598 45.4289 518.554 46.8919C513.312 48.389 507.69 47.7427 502.925 45.0954C496.384 41.3748 495.095 36.8111 493.234 30.3058C493.065 34.2569 494.058 43.044 492.813 45.1139C490.19 47.4501 484.018 46.5965 480.33 46.4889C480.93 39.2 479.422 3.23267 481.417 0.264771ZM514.831 37.9136C520.493 35.7243 521.076 20.507 511.255 21.248C503.878 26.2926 504.859 38.547 514.831 37.9136Z" fill="white"/>
<path d="M389.381 0.571913C398.227 0.406002 418.188 -2.00362 424.942 4.49941C428.776 8.19205 428.255 14.2859 428.07 19.2722C430.155 16.621 432.19 14.1895 435.609 13.2467C440.548 11.9357 453.026 11.4161 457.263 14.0611C466.507 19.8321 461.148 35.8145 464.556 46.5163C461.372 46.6155 455.498 46.9546 452.583 46.4861C451.832 45.559 451.809 45.1784 451.462 43.9907L451.35 43.5849C443.11 44.0288 440.71 54.0585 427.577 42.6466C419.533 20.3136 451.249 32.2026 450.251 21.1695C446.826 18.4937 442.05 21.0995 439.516 23.8729L426.742 22.7148C420.76 30.2677 412.649 29.1288 403.955 29.0906C404.124 34.4805 403.894 41.0177 403.843 46.495L389.331 46.5242C389.23 31.9167 388.815 15.0454 389.381 0.571913ZM404.017 19.6309C405.94 19.5485 409.97 19.4874 411.685 19.1141C418.855 12.0394 411.069 9.90609 404.813 9.69926L404.079 10.4049L404.017 19.6309ZM442.129 39.6316C446.607 39.3177 450.778 37.4209 450.604 32.1964L449.954 31.3097L448.62 31.3887C445.649 32.1432 441.372 32.9963 439.707 35.7854C439.584 37.8632 440.083 38.6597 442.129 39.6316Z" fill="white"/>
<path d="M606.728 119.07C608.056 118.861 607.451 118.757 608.611 119.34C609.598 122.144 609.205 133.217 609.155 136.87C608.426 136.852 607.697 136.84 606.963 136.835C583.151 136.667 578.409 150.066 578.616 170.926C578.728 181.954 578.689 193.347 578.779 204.409C573.958 204.655 567.489 204.472 562.54 204.483C562.102 197.916 562.22 190.892 562.209 184.28C562.125 162.838 562.17 141.396 562.355 119.955L578.689 119.854C578.902 128.439 578.269 136.853 578.678 145.443C583.347 129.166 588.975 120.902 606.728 119.07Z" fill="white"/>
<path d="M510.241 271.211C520.672 271.097 534.748 269.472 542.635 277.112C552.624 286.791 551.542 299.47 542.898 309.336C534.591 317.043 520.499 315.649 509.944 315.525C509.932 301.881 509.495 284.636 510.241 271.211ZM517.326 308.07C523.907 308.24 530.521 308.826 536.216 304.928C540.712 300.024 541.306 298.61 541.065 291.745C540.583 277.907 527.427 278.009 517.304 278.172C517.416 288.131 517.208 298.118 517.326 308.07Z" fill="white"/>
<path d="M424.617 271.247L432.98 270.798L430.099 279.141C427.291 286.553 419.707 313.711 414.948 316.421C408.159 316.43 401.707 289.825 399.796 283.231C399.219 285.505 398.58 287.764 397.879 290.003C396.797 293.396 391.158 312.452 388.232 315.093C387.599 315.662 384.454 315.523 383.064 315.013C380.379 311.58 368.327 276.172 367.178 270.907C375.031 270.796 374.981 270.247 377.402 277.562C380.345 286.445 383.198 295.369 386.079 304.271C387.542 296.999 390.53 289.372 392.66 282.208C393.877 278.106 395.536 271.259 400.278 270.518C407.1 272.976 409.813 296.351 413.815 302.848C415.233 301.847 423.16 275.319 424.617 271.247Z" fill="white"/>
<path d="M321.591 14.0253C324.008 13.9659 331.31 13.6026 333.231 14.1413C333.562 15.6507 333.534 16.0005 333.444 17.5514L334.156 17.5582C338.411 13.3056 338.652 12.545 344.941 13.3941C349.947 14.0695 354.84 14.1262 359.885 13.9647C359.767 23.7249 359.936 33.4705 360.076 43.239C360.149 48.3195 359.896 54.2934 356.191 58.208C354.997 59.4428 353.159 60.2628 351.634 60.9982C347.178 60.9607 343.399 60.7297 339.027 59.6014C340.182 54.4952 339.649 51.9421 344.902 50.0683C347.357 47.611 347.262 44.5131 347.284 41.1012C347.334 32.8287 346.83 24.6116 347.368 16.3385C344.207 24.4205 344.644 22.508 337.766 24.6402C333.427 25.9849 334.408 42.8842 334.47 47.463C330.092 47.5146 325.9 47.5746 321.523 47.4003C321.587 43.3057 321.558 38.7976 321.73 34.7434C322.323 32.2037 321.915 29.4617 321.648 26.8727C321.618 22.8034 321.46 18.0363 321.591 14.0253Z" fill="white"/>
<path d="M236.469 271.078L243.679 270.91L243.669 315.765C242.508 315.735 241.349 315.661 240.194 315.545C239.532 315.475 238.074 315.337 237.659 314.899C229.428 306.207 220.704 293.833 213.241 284.499C213.78 293.778 213.461 306.013 213.38 315.521L205.309 315.619C205.13 308.873 204.517 275.697 205.865 270.883C207.997 270.906 210.648 271.225 212.818 271.427C218.084 278.277 231.218 296.312 236.363 301.703C236.002 291.497 236.037 281.281 236.469 271.078Z" fill="white"/>
<path d="M330.667 270.839C332.088 270.892 334.078 270.763 335.389 271.295C338.029 272.367 353.394 310.287 355.916 315.445C353.4 315.531 350.636 315.446 348.097 315.421C345.771 311.576 344.649 308.81 342.895 304.664C340.445 304.76 337.138 304.607 334.627 304.567C330.447 304.636 326.813 304.66 322.641 304.463C320.02 309.853 319.466 317.614 311.478 315.099C309.957 311.748 327.198 276.452 329.186 271.687C329.186 271.687 330.476 270.948 330.667 270.839ZM325.751 297.68L332.799 297.606L339.857 297.661C338.803 294.934 334.38 282.52 332.519 281.118C330.191 286.604 327.807 292.087 325.751 297.68Z" fill="white"/>
<path d="M463.424 270.926C464.494 270.874 469.926 270.632 470.375 271.741C476.227 286.14 483.048 300.13 488.845 314.546L488.166 315.28C479.809 316.445 479.192 311.195 476.507 304.617L471.4 304.495L456.215 304.582C454.511 308.351 453.042 311.681 451.574 315.546L443.67 315.514C446.069 310.265 461.159 273.039 463.424 270.926ZM458.99 297.673L468.037 297.632L473.721 297.685C472.6 294.84 467.97 282.568 466.288 281.133C464.057 285.989 461.226 293.397 458.99 297.673Z" fill="white"/>
<path d="M115.324 270.824C117.125 270.928 118.134 270.763 119.449 271.925C121.148 275.541 120.195 284.715 120.272 289.572C127.301 289.682 134.042 289.799 141.075 289.583C141.052 283.397 141.08 277.211 141.161 271.026C143.771 271.008 146.513 271.096 149.134 271.137C149.043 277.293 149.747 312.136 148.494 315.201L146.836 315.727C145.099 315.675 142.642 315.848 141.345 314.944C140.698 310.519 140.994 301.177 141.016 296.362L120.211 296.425C120.143 302.799 120.168 309.173 120.287 315.546C117.833 315.631 115.031 315.476 112.55 315.397C112.507 301.93 112.188 287.848 112.835 274.369C112.953 271.904 113.324 271.686 115.324 270.824Z" fill="white"/>
<path d="M569.451 13.0842C573.336 12.8958 577.775 12.9289 581.71 12.8684C581.581 22.1588 583.594 47.9585 580.13 54.9273C578.762 57.6789 576.559 58.5006 573.818 59.4002C569.468 59.866 565.981 59.236 561.716 58.5976C562.36 51.464 561.503 50.6075 568.38 47.49C570.567 43.3332 568.678 20.5199 569.384 13.6766L569.451 13.0842Z" fill="white"/>
<path d="M475.537 0.296716L477.314 0.226105C478.547 1.68903 478.032 40.696 478.222 46.5629L467.757 46.5528L466.176 46.2961C464.78 43.3668 465.077 6.27287 465.515 0.278225L475.537 0.296716Z" fill="white"/>
<path d="M291.313 270.995L291.999 271.131C292.978 272.946 292.193 287.942 292.554 291.449C292.818 294.025 292.519 300.293 292.129 302.929C290.154 316.296 276.539 319.832 266.269 312.127C264.495 310.741 264.657 311.276 264.015 309.395C264.337 307.556 266.746 305.73 268.208 304.388C290.032 320.871 283.771 283.364 284.395 271.138L291.313 270.995Z" fill="white"/>
<path d="M584.457 12.9861C588.627 12.8437 593.067 12.9553 597.26 12.9939C597.652 19.9005 597.512 39.6507 597.064 46.4934L584.564 46.4569C584.025 35.9048 584.328 23.5612 584.457 12.9861Z" fill="white"/>
<path d="M362.716 14.0639C366.802 13.9972 370.889 13.9989 374.981 14.069C375.222 18.2818 375.732 45.4295 374.229 47.4367C370.16 47.2674 366.628 47.3123 362.553 47.407C362.733 36.2932 362.789 25.1783 362.716 14.0639Z" fill="white"/>
<path d="M572.215 271.161C574.434 271.068 576.94 270.716 578.846 271.754C580.202 274.173 579.575 310.257 579.558 315.44C577.332 315.586 574.39 315.526 572.103 315.547C571.929 300.752 571.962 285.955 572.215 271.161Z" fill="white"/>
<path d="M173.729 271.3C175.918 271.192 178.096 270.82 179.948 271.873C181.47 275.719 180.813 309.34 180.57 315.542C178.275 315.621 176.058 315.849 173.883 315.117C172.308 312.162 173.196 276.227 173.729 271.3Z" fill="white"/>
<path d="M347.48 1.22043C351.611 1.2322 355.737 1.19073 359.863 1.09601L359.801 10.0412L347.239 9.98231C347.301 7.0615 347.385 4.14069 347.48 1.22043Z" fill="white"/>
<path d="M362.895 1.18344L374.953 1.22044C375.227 4.91756 375.227 6.30707 374.975 10.0075L362.508 10.021L362.895 1.18344Z" fill="white"/>
<path d="M585.595 0.236734C592.675 0.300632 600.298 -1.30915 596.57 8.92687L584.468 8.91119C584.401 6.38217 583.784 1.9205 585.595 0.236734Z" fill="white"/>
<path d="M579.216 0.290555C580.466 0.025434 579.821 0.0377552 581.189 0.479997C582.108 2.62675 581.794 6.47297 581.761 8.9465L572.018 8.96388C570.78 8.97901 570.802 9.04459 569.765 8.43476C568.795 6.38049 569.322 2.81508 569.474 0.410498L579.216 0.290555Z" fill="white"/>
</svg>
